<svg width="2%" height="2%" viewBox="0 0 63 60" fill="none" xmlns="http://www.w3.org/2000/svg">
<g filter="url(#filter0_b_473_233)">
<rect x="5.77094" y="55.4778" width="43.6628" height="3.74622" rx="1.87311" fill="url(#paint0_linear_473_233)"/>
</g>
<g opacity="0.5" filter="url(#filter1_b_473_233)">
<path d="M6.69816 30.0294H55.2239L60.8016 54.1861H1.12048L6.69816 30.0294Z" fill="url(#paint1_linear_473_233)"/>
</g>
<g filter="url(#filter2_b_473_233)">
<path d="M0.238564 52.1672L5.13506 26.6096C5.1802 26.374 5.38627 26.2037 5.62613 26.2037H56.547C56.7874 26.2037 56.9937 26.3747 57.0383 26.6108L61.8449 52.0464C61.903 52.3539 61.6676 52.6386 61.3546 52.6392L0.730639 52.7613C0.416358 52.7619 0.179427 52.4759 0.238564 52.1672Z" fill="url(#paint2_linear_473_233)" fill-opacity="0.2" style="mix-blend-mode:overlay"/>
<path d="M0.484098 52.2142L5.3806 26.6566C5.40317 26.5388 5.5062 26.4537 5.62613 26.4537H56.547C56.6672 26.4537 56.7704 26.5392 56.7927 26.6573L61.5993 52.0928C61.6283 52.2465 61.5106 52.3889 61.3541 52.3892L0.730136 52.5113C0.572995 52.5116 0.45453 52.3686 0.484098 52.2142Z" stroke="url(#paint3_linear_473_233)" stroke-width="0.5"/>
</g>
<g filter="url(#filter3_b_473_233)">
<path d="M60.9908 58.1387L1.10412 58.1636C0.849907 58.1637 0.636082 57.973 0.607155 57.7205L0.0637855 52.9765C0.0297974 52.6797 0.261855 52.4196 0.560537 52.4196H61.4918C61.7888 52.4196 62.0203 52.677 61.989 52.9724L61.4878 57.6915C61.4608 57.9457 61.2465 58.1385 60.9908 58.1387Z" fill="url(#paint4_linear_473_233)" fill-opacity="0.2" style="mix-blend-mode:overlay"/>
<path d="M60.9907 57.8887L1.10401 57.9136C0.976907 57.9136 0.869995 57.8183 0.855531 57.692L0.312162 52.948C0.295168 52.7996 0.411196 52.6696 0.560537 52.6696H61.4918C61.6403 52.6696 61.7561 52.7983 61.7404 52.946L61.2392 57.6651C61.2257 57.7922 61.1185 57.8886 60.9907 57.8887Z" stroke="url(#paint5_linear_473_233)" stroke-width="0.5"/>
</g>
<g filter="url(#filter4_b_473_233)">
<rect x="5.77094" y="46.7433" width="43.6628" height="3.74622" rx="1.87311" fill="url(#paint6_linear_473_233)"/>
</g>
<g filter="url(#filter5_b_473_233)">
<path d="M0.238564 43.4327L5.13506 17.8751C5.1802 17.6395 5.38627 17.4692 5.62613 17.4692H56.547C56.7874 17.4692 56.9937 17.6402 57.0383 17.8763L61.8449 43.3119C61.903 43.6194 61.6676 43.9041 61.3546 43.9047L0.730639 44.0268C0.416358 44.0274 0.179427 43.7414 0.238564 43.4327Z" fill="url(#paint7_linear_473_233)" fill-opacity="0.2" style="mix-blend-mode:overlay"/>
<path d="M0.484098 43.4797L5.3806 17.9221C5.40317 17.8043 5.5062 17.7192 5.62613 17.7192H56.547C56.6672 17.7192 56.7704 17.8047 56.7927 17.9228L61.5993 43.3583C61.6283 43.512 61.5106 43.6544 61.3541 43.6547L0.730136 43.7768C0.572995 43.7771 0.45453 43.6341 0.484098 43.4797Z" stroke="url(#paint8_linear_473_233)" stroke-width="0.5"/>
</g>
<g filter="url(#filter6_b_473_233)">
<path d="M60.9908 49.4042L1.10412 49.4291C0.849907 49.4292 0.636082 49.2385 0.607155 48.986L0.0637855 44.242C0.0297974 43.9452 0.261855 43.6851 0.560537 43.6851H61.4918C61.7888 43.6851 62.0203 43.9425 61.989 44.2379L61.4878 48.957C61.4608 49.2112 61.2465 49.4041 60.9908 49.4042Z" fill="url(#paint9_linear_473_233)" fill-opacity="0.2" style="mix-blend-mode:overlay"/>
<path d="M60.9907 49.1542L1.10401 49.1791C0.976907 49.1791 0.869995 49.0838 0.855531 48.9575L0.312162 44.2135C0.295168 44.0651 0.411196 43.9351 0.560537 43.9351H61.4918C61.6403 43.9351 61.7561 44.0638 61.7404 44.2115L61.2392 48.9306C61.2257 49.0577 61.1185 49.1541 60.9907 49.1542Z" stroke="url(#paint10_linear_473_233)" stroke-width="0.5"/>
</g>
<g filter="url(#filter7_b_473_233)">
<rect x="5.77094" y="38.0087" width="43.6628" height="3.74622" rx="1.87311" fill="url(#paint11_linear_473_233)"/>
</g>
<g filter="url(#filter8_b_473_233)">
<path d="M0.238564 34.6981L5.13506 9.14048C5.1802 8.9049 5.38627 8.73456 5.62613 8.73456H56.547C56.7874 8.73456 56.9937 8.90556 57.0383 9.14172L61.8449 34.5772C61.903 34.8848 61.6676 35.1695 61.3546 35.1701L0.730639 35.2921C0.416358 35.2928 0.179427 35.0067 0.238564 34.6981Z" fill="url(#paint12_linear_473_233)" fill-opacity="0.2" style="mix-blend-mode:overlay"/>
<path d="M0.484098 34.7451L5.3806 9.18752C5.40317 9.06973 5.5062 8.98456 5.62613 8.98456H56.547C56.6672 8.98456 56.7704 9.07006 56.7927 9.18814L61.5993 34.6237C61.6283 34.7774 61.5106 34.9198 61.3541 34.9201L0.730136 35.0421C0.572995 35.0425 0.45453 34.8994 0.484098 34.7451Z" stroke="url(#paint13_linear_473_233)" stroke-width="0.5"/>
</g>
<g filter="url(#filter9_b_473_233)">
<path d="M60.9908 40.6695L1.10412 40.6945C0.849907 40.6946 0.636082 40.5039 0.607155 40.2514L0.0637855 35.5073C0.0297974 35.2106 0.261855 34.9504 0.560537 34.9504H61.4918C61.7888 34.9504 62.0203 35.2079 61.989 35.5032L61.4878 40.2223C61.4608 40.4765 61.2465 40.6694 60.9908 40.6695Z" fill="url(#paint14_linear_473_233)" fill-opacity="0.2" style="mix-blend-mode:overlay"/>
<path d="M60.9907 40.4195L1.10401 40.4445C0.976907 40.4445 0.869995 40.3492 0.855531 40.2229L0.312162 35.4789C0.295168 35.3305 0.411196 35.2004 0.560537 35.2004H61.4918C61.6403 35.2004 61.7561 35.3292 61.7404 35.4768L61.2392 40.1959C61.2257 40.323 61.1185 40.4195 60.9907 40.4195Z" stroke="url(#paint15_linear_473_233)" stroke-width="0.5"/>
</g>
<g filter="url(#filter10_b_473_233)">
<rect x="5.77094" y="29.2742" width="43.6628" height="3.74622" rx="1.87311" fill="url(#paint16_linear_473_233)"/>
</g>
<g opacity="0.5" filter="url(#filter11_b_473_233)">
<path d="M6.69816 3.82574H55.2239L60.8016 27.9824H1.12048L6.69816 3.82574Z" fill="url(#paint17_linear_473_233)"/>
</g>
<g filter="url(#filter12_b_473_233)">
<path d="M0.124512 26.5588L5.21283 0H56.9614L61.9567 26.4343L0.124512 26.5588Z" fill="url(#paint18_linear_473_233)" fill-opacity="0.2" style="mix-blend-mode:overlay"/>
<path d="M56.7542 0.25L61.6552 26.1849L0.427072 26.3082L5.41948 0.25H56.7542Z" stroke="url(#paint19_linear_473_233)" stroke-width="0.5"/>
</g>
<g filter="url(#filter13_b_473_233)">
<path d="M60.9908 31.935L1.10412 31.9599C0.849907 31.96 0.636082 31.7694 0.607155 31.5168L0.0637855 26.7728C0.0297974 26.476 0.261855 26.2159 0.560537 26.2159H61.4918C61.7888 26.2159 62.0203 26.4733 61.989 26.7687L61.4878 31.4878C61.4608 31.742 61.2465 31.9349 60.9908 31.935Z" fill="url(#paint20_linear_473_233)" fill-opacity="0.2" style="mix-blend-mode:overlay"/>
<path d="M60.9907 31.685L1.10401 31.7099C0.976907 31.71 0.869995 31.6146 0.855531 31.4884L0.312162 26.7443C0.295168 26.596 0.411196 26.4659 0.560537 26.4659H61.4918C61.6403 26.4659 61.7561 26.5946 61.7404 26.7423L61.2392 31.4614C61.2257 31.5885 61.1185 31.6849 60.9907 31.685Z" stroke="url(#paint21_linear_473_233)" stroke-width="0.5"/>
</g>
<defs>
<filter id="filter0_b_473_233" x="-36.2291" y="13.4778" width="127.663" height="87.7462" filterUnits="userSpaceOnUse" color-interpolation-filters="sRGB">
<feFlood flood-opacity="0" result="BackgroundImageFix"/>
<feGaussianBlur in="BackgroundImageFix" stdDeviation="21"/>
<feComposite in2="SourceAlpha" operator="in" result="effect1_backgroundBlur_473_233"/>
<feBlend mode="normal" in="SourceGraphic" in2="effect1_backgroundBlur_473_233" result="shape"/>
</filter>
<filter id="filter1_b_473_233" x="-40.8795" y="-11.9706" width="143.681" height="108.157" filterUnits="userSpaceOnUse" color-interpolation-filters="sRGB">
<feFlood flood-opacity="0" result="BackgroundImageFix"/>
<feGaussianBlur in="BackgroundImageFix" stdDeviation="21"/>
<feComposite in2="SourceAlpha" operator="in" result="effect1_backgroundBlur_473_233"/>
<feBlend mode="normal" in="SourceGraphic" in2="effect1_backgroundBlur_473_233" result="shape"/>
</filter>
<filter id="filter2_b_473_233" x="-4.77051" y="21.2037" width="71.6243" height="36.5576" filterUnits="userSpaceOnUse" color-interpolation-filters="sRGB">
<feFlood flood-opacity="0" result="BackgroundImageFix"/>
<feGaussianBlur in="BackgroundImageFix" stdDeviation="2.5"/>
<feComposite in2="SourceAlpha" operator="in" result="effect1_backgroundBlur_473_233"/>
<feBlend mode="normal" in="SourceGraphic" in2="effect1_backgroundBlur_473_233" result="shape"/>
</filter>
<filter id="filter3_b_473_233" x="-4.93951" y="47.4196" width="71.9313" height="15.744" filterUnits="userSpaceOnUse" color-interpolation-filters="sRGB">
<feFlood flood-opacity="0" result="BackgroundImageFix"/>
<feGaussianBlur in="BackgroundImageFix" stdDeviation="2.5"/>
<feComposite in2="SourceAlpha" operator="in" result="effect1_backgroundBlur_473_233"/>
<feBlend mode="normal" in="SourceGraphic" in2="effect1_backgroundBlur_473_233" result="shape"/>
</filter>
<filter id="filter4_b_473_233" x="-36.2291" y="4.74335" width="127.663" height="87.7462" filterUnits="userSpaceOnUse" color-interpolation-filters="sRGB">
<feFlood flood-opacity="0" result="BackgroundImageFix"/>
<feGaussianBlur in="BackgroundImageFix" stdDeviation="21"/>
<feComposite in2="SourceAlpha" operator="in" result="effect1_backgroundBlur_473_233"/>
<feBlend mode="normal" in="SourceGraphic" in2="effect1_backgroundBlur_473_233" result="shape"/>
</filter>
<filter id="filter5_b_473_233" x="-4.77051" y="12.4692" width="71.6243" height="36.5576" filterUnits="userSpaceOnUse" color-interpolation-filters="sRGB">
<feFlood flood-opacity="0" result="BackgroundImageFix"/>
<feGaussianBlur in="BackgroundImageFix" stdDeviation="2.5"/>
<feComposite in2="SourceAlpha" operator="in" result="effect1_backgroundBlur_473_233"/>
<feBlend mode="normal" in="SourceGraphic" in2="effect1_backgroundBlur_473_233" result="shape"/>
</filter>
<filter id="filter6_b_473_233" x="-4.93951" y="38.6851" width="71.9313" height="15.744" filterUnits="userSpaceOnUse" color-interpolation-filters="sRGB">
<feFlood flood-opacity="0" result="BackgroundImageFix"/>
<feGaussianBlur in="BackgroundImageFix" stdDeviation="2.5"/>
<feComposite in2="SourceAlpha" operator="in" result="effect1_backgroundBlur_473_233"/>
<feBlend mode="normal" in="SourceGraphic" in2="effect1_backgroundBlur_473_233" result="shape"/>
</filter>
<filter id="filter7_b_473_233" x="-36.2291" y="-3.99127" width="127.663" height="87.7462" filterUnits="userSpaceOnUse" color-interpolation-filters="sRGB">
<feFlood flood-opacity="0" result="BackgroundImageFix"/>
<feGaussianBlur in="BackgroundImageFix" stdDeviation="21"/>
<feComposite in2="SourceAlpha" operator="in" result="effect1_backgroundBlur_473_233"/>
<feBlend mode="normal" in="SourceGraphic" in2="effect1_backgroundBlur_473_233" result="shape"/>
</filter>
<filter id="filter8_b_473_233" x="-4.77051" y="3.73456" width="71.6243" height="36.5576" filterUnits="userSpaceOnUse" color-interpolation-filters="sRGB">
<feFlood flood-opacity="0" result="BackgroundImageFix"/>
<feGaussianBlur in="BackgroundImageFix" stdDeviation="2.5"/>
<feComposite in2="SourceAlpha" operator="in" result="effect1_backgroundBlur_473_233"/>
<feBlend mode="normal" in="SourceGraphic" in2="effect1_backgroundBlur_473_233" result="shape"/>
</filter>
<filter id="filter9_b_473_233" x="-4.93951" y="29.9504" width="71.9313" height="15.744" filterUnits="userSpaceOnUse" color-interpolation-filters="sRGB">
<feFlood flood-opacity="0" result="BackgroundImageFix"/>
<feGaussianBlur in="BackgroundImageFix" stdDeviation="2.5"/>
<feComposite in2="SourceAlpha" operator="in" result="effect1_backgroundBlur_473_233"/>
<feBlend mode="normal" in="SourceGraphic" in2="effect1_backgroundBlur_473_233" result="shape"/>
</filter>
<filter id="filter10_b_473_233" x="-36.2291" y="-12.7258" width="127.663" height="87.7462" filterUnits="userSpaceOnUse" color-interpolation-filters="sRGB">
<feFlood flood-opacity="0" result="BackgroundImageFix"/>
<feGaussianBlur in="BackgroundImageFix" stdDeviation="21"/>
<feComposite in2="SourceAlpha" operator="in" result="effect1_backgroundBlur_473_233"/>
<feBlend mode="normal" in="SourceGraphic" in2="effect1_backgroundBlur_473_233" result="shape"/>
</filter>
<filter id="filter11_b_473_233" x="-40.8795" y="-38.1743" width="143.681" height="108.157" filterUnits="userSpaceOnUse" color-interpolation-filters="sRGB">
<feFlood flood-opacity="0" result="BackgroundImageFix"/>
<feGaussianBlur in="BackgroundImageFix" stdDeviation="21"/>
<feComposite in2="SourceAlpha" operator="in" result="effect1_backgroundBlur_473_233"/>
<feBlend mode="normal" in="SourceGraphic" in2="effect1_backgroundBlur_473_233" result="shape"/>
</filter>
<filter id="filter12_b_473_233" x="-4.87549" y="-5" width="71.8322" height="36.5588" filterUnits="userSpaceOnUse" color-interpolation-filters="sRGB">
<feFlood flood-opacity="0" result="BackgroundImageFix"/>
<feGaussianBlur in="BackgroundImageFix" stdDeviation="2.5"/>
<feComposite in2="SourceAlpha" operator="in" result="effect1_backgroundBlur_473_233"/>
<feBlend mode="normal" in="SourceGraphic" in2="effect1_backgroundBlur_473_233" result="shape"/>
</filter>
<filter id="filter13_b_473_233" x="-4.93951" y="21.2159" width="71.9313" height="15.744" filterUnits="userSpaceOnUse" color-interpolation-filters="sRGB">
<feFlood flood-opacity="0" result="BackgroundImageFix"/>
<feGaussianBlur in="BackgroundImageFix" stdDeviation="2.5"/>
<feComposite in2="SourceAlpha" operator="in" result="effect1_backgroundBlur_473_233"/>
<feBlend mode="normal" in="SourceGraphic" in2="effect1_backgroundBlur_473_233" result="shape"/>
</filter>
<linearGradient id="paint0_linear_473_233" x1="41.0864" y1="55.8773" x2="40.6336" y2="61.1547" gradientUnits="userSpaceOnUse">
<stop stop-color="#04FFFE"/>
<stop offset="1" stop-color="#2AC870"/>
</linearGradient>
<linearGradient id="paint1_linear_473_233" x1="49.392" y1="32.6049" x2="37.4696" y2="62.0603" gradientUnits="userSpaceOnUse">
<stop stop-color="#04FFFE"/>
<stop offset="1" stop-color="#2AC870"/>
</linearGradient>
<linearGradient id="paint2_linear_473_233" x1="31.144" y1="22.554" x2="31.144" y2="55.4887" gradientUnits="userSpaceOnUse">
<stop stop-color="white" stop-opacity="0.15"/>
<stop offset="1" stop-opacity="0.15"/>
</linearGradient>
<linearGradient id="paint3_linear_473_233" x1="33.6092" y1="55.3338" x2="33.6092" y2="26.8496" gradientUnits="userSpaceOnUse">
<stop stop-color="#04FFFE"/>
<stop offset="1" stop-color="#2AC870" stop-opacity="0"/>
</linearGradient>
<linearGradient id="paint4_linear_473_233" x1="31.1276" y1="51.6302" x2="31.1276" y2="58.7534" gradientUnits="userSpaceOnUse">
<stop stop-color="white" stop-opacity="0.15"/>
<stop offset="1" stop-opacity="0.15"/>
</linearGradient>
<linearGradient id="paint5_linear_473_233" x1="26.4397" y1="50.9416" x2="26.4397" y2="58.1111" gradientUnits="userSpaceOnUse">
<stop stop-color="#04FFFE"/>
<stop offset="1" stop-color="#2AC870" stop-opacity="0"/>
</linearGradient>
<linearGradient id="paint6_linear_473_233" x1="41.0864" y1="47.1428" x2="40.6336" y2="52.4202" gradientUnits="userSpaceOnUse">
<stop stop-color="#04FFFE"/>
<stop offset="1" stop-color="#2AC870"/>
</linearGradient>
<linearGradient id="paint7_linear_473_233" x1="31.144" y1="13.8195" x2="31.144" y2="46.7542" gradientUnits="userSpaceOnUse">
<stop stop-color="white" stop-opacity="0.15"/>
<stop offset="1" stop-opacity="0.15"/>
</linearGradient>
<linearGradient id="paint8_linear_473_233" x1="33.6092" y1="46.5993" x2="33.6092" y2="18.1151" gradientUnits="userSpaceOnUse">
<stop stop-color="#04FFFE"/>
<stop offset="1" stop-color="#2AC870" stop-opacity="0"/>
</linearGradient>
<linearGradient id="paint9_linear_473_233" x1="31.1276" y1="42.8957" x2="31.1276" y2="50.0189" gradientUnits="userSpaceOnUse">
<stop stop-color="white" stop-opacity="0.15"/>
<stop offset="1" stop-opacity="0.15"/>
</linearGradient>
<linearGradient id="paint10_linear_473_233" x1="26.4397" y1="42.2071" x2="26.4397" y2="49.3766" gradientUnits="userSpaceOnUse">
<stop stop-color="#04FFFE"/>
<stop offset="1" stop-color="#2AC870" stop-opacity="0"/>
</linearGradient>
<linearGradient id="paint11_linear_473_233" x1="41.0864" y1="38.4081" x2="40.6336" y2="43.6856" gradientUnits="userSpaceOnUse">
<stop stop-color="#04FFFE"/>
<stop offset="1" stop-color="#2AC870"/>
</linearGradient>
<linearGradient id="paint12_linear_473_233" x1="31.144" y1="5.08492" x2="31.144" y2="38.0196" gradientUnits="userSpaceOnUse">
<stop stop-color="white" stop-opacity="0.15"/>
<stop offset="1" stop-opacity="0.15"/>
</linearGradient>
<linearGradient id="paint13_linear_473_233" x1="33.6092" y1="37.8646" x2="33.6092" y2="9.38046" gradientUnits="userSpaceOnUse">
<stop stop-color="#04FFFE"/>
<stop offset="1" stop-color="#2AC870" stop-opacity="0"/>
</linearGradient>
<linearGradient id="paint14_linear_473_233" x1="31.1276" y1="34.1611" x2="31.1276" y2="41.2843" gradientUnits="userSpaceOnUse">
<stop stop-color="white" stop-opacity="0.15"/>
<stop offset="1" stop-opacity="0.15"/>
</linearGradient>
<linearGradient id="paint15_linear_473_233" x1="26.4397" y1="33.4725" x2="26.4397" y2="40.642" gradientUnits="userSpaceOnUse">
<stop stop-color="#04FFFE"/>
<stop offset="1" stop-color="#2AC870" stop-opacity="0"/>
</linearGradient>
<linearGradient id="paint16_linear_473_233" x1="41.0864" y1="29.6736" x2="40.6336" y2="34.9511" gradientUnits="userSpaceOnUse">
<stop stop-color="#04FFFE"/>
<stop offset="1" stop-color="#2AC870"/>
</linearGradient>
<linearGradient id="paint17_linear_473_233" x1="49.392" y1="6.40127" x2="37.4696" y2="35.8567" gradientUnits="userSpaceOnUse">
<stop stop-color="#04FFFE"/>
<stop offset="1" stop-color="#2AC870"/>
</linearGradient>
<linearGradient id="paint18_linear_473_233" x1="31.144" y1="-3.64964" x2="31.144" y2="29.285" gradientUnits="userSpaceOnUse">
<stop stop-color="white" stop-opacity="0.15"/>
<stop offset="1" stop-opacity="0.15"/>
</linearGradient>
<linearGradient id="paint19_linear_473_233" x1="33.6092" y1="29.1301" x2="33.6092" y2="0.645901" gradientUnits="userSpaceOnUse">
<stop stop-color="#04FFFE"/>
<stop offset="1" stop-color="#2AC870" stop-opacity="0"/>
</linearGradient>
<linearGradient id="paint20_linear_473_233" x1="31.1276" y1="25.4265" x2="31.1276" y2="32.5497" gradientUnits="userSpaceOnUse">
<stop stop-color="white" stop-opacity="0.15"/>
<stop offset="1" stop-opacity="0.15"/>
</linearGradient>
<linearGradient id="paint21_linear_473_233" x1="26.4397" y1="24.7379" x2="26.4397" y2="31.9074" gradientUnits="userSpaceOnUse">
<stop stop-color="#04FFFE"/>
<stop offset="1" stop-color="#2AC870" stop-opacity="0"/>
</linearGradient>
</defs>
</svg>